<?xml version="1.0" encoding="utf-8"?>
<svg xmlns="http://www.w3.org/2000/svg"
	xmlns:xlink="http://www.w3.org/1999/xlink"
	width="17px" height="17px" viewBox="0 0 17 17">
<path fillRule="evenodd" d="M 11.76 8.12C 11.76 8.12 16.03 12.4 16.03 12.4 16.91 13.28 16.91 14.71 16.03 15.6 15.15 16.48 13.71 16.48 12.83 15.6 12.83 15.6 8.56 11.32 8.56 11.32 8.56 11.32 4.29 15.59 4.29 15.59 3.41 16.48 1.98 16.48 1.09 15.59 0.21 14.71 0.21 13.28 1.09 12.39 1.09 12.39 5.36 8.12 5.36 8.12 5.36 8.12 1.1 3.86 1.1 3.86 0.21 2.98 0.21 1.55 1.1 0.66 1.98-0.22 3.41-0.22 4.3 0.66 4.3 0.66 8.56 4.93 8.56 4.93 8.56 4.93 12.82 0.66 12.82 0.66 13.71-0.22 15.14-0.22 16.02 0.66 16.91 1.54 16.91 2.98 16.02 3.86 16.02 3.86 11.76 8.12 11.76 8.12Z" fill="rgb(53,55,67)"/></svg>