<?xml version="1.0" encoding="utf-8"?>
<svg xmlns="http://www.w3.org/2000/svg"
	xmlns:xlink="http://www.w3.org/1999/xlink"
	width="21px" height="28px" viewBox="0 0 21 28">
<filter filterUnits="objectBoundingBox" x="0.00" y="0.00" width="100.00" height="100.00" id="filter0">
<feImage x="0" y="0" width="21" height="28" preserveApectRatio="none" xlink:href="#symbol0"/>
<feComposite in="grImage1" in2="SourceAlpha" operator="in" result="grOverlay1"/>
<feBlend in="grOverlay1" in2="SourceGraphic" mode="normal" result="gradientOverlay1"/>
</filter>
<linearGradient id="linear_PSgrad_0" x1="50%" y1="100%" x2="50%" y2="0%">
    <stop offset="0%" stop-color="rgb(147,33,145)" stop-opacity="1" />
    <stop offset="100%" stop-color="rgb(255,55,109)" stop-opacity="1" />
</linearGradient>

<defs>
<rect x="0" y="0" width="21" height="28" id="symbol0" fill="url(#linear_PSgrad_0)"/></defs>
<path fillRule="evenodd" d="M 20.12 13.42C 19.82 14.3 18.91 15.16 18.37 14.98 18.37 14.98 12.49 12.98 12.49 12.98 12.49 12.98 12.49 17.46 12.49 17.46 12.49 17.46 19.83 24.8 19.83 24.8 20.46 25.43 20.34 26.57 19.56 27.35 18.78 28.14 17.63 28.26 17.01 27.63 17.01 27.63 10.48 21.11 10.48 21.11 10.48 21.11 3.96 27.63 3.96 27.63 3.33 28.26 2.19 28.14 1.41 27.35 0.63 26.57 0.5 25.43 1.13 24.8 1.13 24.8 8.49 17.44 8.49 17.44 8.49 17.44 8.49 12.69 8.49 12.69 8.49 12.69 2.41 14.75 2.41 14.75 1.86 14.94 0.96 14.08 0.66 13.19 0.35 12.31 0.55 11.44 1.1 11.25 1.1 11.25 9.48 8.4 9.48 8.4 9.58 8.37 9.69 8.38 9.81 8.4 9.88 8.38 9.95 8.38 10.03 8.36 8.08 8.09 6.57 6.44 6.57 4.41 6.57 2.2 8.36 0.41 10.57 0.41 12.78 0.41 14.57 2.2 14.57 4.41 14.57 6.46 13.04 8.12 11.06 8.37 11.37 8.45 11.62 8.62 11.85 8.82 11.85 8.82 19.68 11.48 19.68 11.48 20.22 11.66 20.42 12.53 20.12 13.42Z" fill="rgb(21,201,137)" filter="url(#filter0)"/></svg>