<?xml version="1.0" encoding="utf-8"?>
<svg xmlns="http://www.w3.org/2000/svg"
	xmlns:xlink="http://www.w3.org/1999/xlink"
	width="9px" height="9px" viewBox="0 0 9 9">
<path fillRule="evenodd" d="M 5.88 4.31C 5.88 4.31 8.02 6.45 8.02 6.45 8.46 6.89 8.46 7.61 8.02 8.05 7.57 8.49 6.86 8.49 6.42 8.05 6.42 8.05 4.28 5.91 4.28 5.91 4.28 5.91 2.15 8.05 2.15 8.05 1.7 8.49 0.99 8.49 0.55 8.05 0.1 7.61 0.1 6.89 0.55 6.45 0.55 6.45 2.68 4.31 2.68 4.31 2.68 4.31 0.55 2.18 0.55 2.18 0.11 1.74 0.11 1.02 0.55 0.58 0.99 0.14 1.71 0.14 2.15 0.58 2.15 0.58 4.28 2.71 4.28 2.71 4.28 2.71 6.41 0.58 6.41 0.58 6.85 0.14 7.57 0.14 8.01 0.58 8.45 1.02 8.45 1.74 8.01 2.18 8.01 2.18 5.88 4.31 5.88 4.31Z" fill="rgb(53,55,67)"/></svg>