<?xml version="1.0" encoding="utf-8"?>
<svg xmlns="http://www.w3.org/2000/svg"
	xmlns:xlink="http://www.w3.org/1999/xlink"
	width="16px" height="13px" viewBox="0 0 16 13">
<linearGradient id="linear_PSgrad_0" x1="50%" y1="100%" x2="50%" y2="0%">
    <stop offset="0%" stop-color="rgb(71,161,113)" stop-opacity="1" />
    <stop offset="100%" stop-color="rgb(125,215,77)" stop-opacity="1" />
</linearGradient>

<clipPath id="clip0"><path fillRule="evenodd" d="M 10.38 12.58C 10.65 12.62 10.83 12.65 10.83 12.65 10.83 12.65 9.7 12.65 9.7 12.65 9.69 12.65 9.68 12.65 9.68 12.65 9.67 12.65 9.67 12.65 9.66 12.65 9.66 12.65 0.04 12.65 0.04 12.65 0.04 12.65 3.87 8.82 3.87 8.82 3.54 8.05 3.35 7.21 3.35 6.32 3.35 2.83 6.19-0 9.68-0 13.17-0 16 2.83 16 6.32 16 9.58 13.54 12.22 10.38 12.58Z"/></clipPath><path fillRule="evenodd" d="M 10.38 12.58C 10.65 12.62 10.83 12.65 10.83 12.65 10.83 12.65 9.7 12.65 9.7 12.65 9.69 12.65 9.68 12.65 9.68 12.65 9.67 12.65 9.67 12.65 9.66 12.65 9.66 12.65 0.04 12.65 0.04 12.65 0.04 12.65 3.87 8.82 3.87 8.82 3.54 8.05 3.35 7.21 3.35 6.32 3.35 2.83 6.19-0 9.68-0 13.17-0 16 2.83 16 6.32 16 9.58 13.54 12.22 10.38 12.58Z" fill="none" stroke="url(#linear_PSgrad_0)" stroke-width="6.00px" clip-path="url(#clip0)"/></svg>