<?xml version="1.0" encoding="utf-8"?>
<svg xmlns="http://www.w3.org/2000/svg"
	xmlns:xlink="http://www.w3.org/1999/xlink"
	width="27px" height="22px" viewBox="0 0 27 22">
<linearGradient id="linear_PSgrad_0" x1="50%" y1="100%" x2="50%" y2="0%">
    <stop offset="0%" stop-color="rgb(71,161,113)" stop-opacity="1" />
    <stop offset="100%" stop-color="rgb(125,215,77)" stop-opacity="1" />
</linearGradient>

<clipPath id="clip0"><path fillRule="evenodd" d="M 17.7 21.75C 18.07 21.81 18.3 21.84 18.3 21.84 18.3 21.84 16.43 21.84 16.43 21.84 16.41 21.84 16.39 21.84 16.37 21.84 16.35 21.84 16.33 21.84 16.31 21.84 16.31 21.84 0.15 21.84 0.15 21.84 0.15 21.84 6.59 15.4 6.59 15.4 6.04 14.11 5.73 12.69 5.73 11.2 5.73 5.33 10.49 0.56 16.37 0.56 22.24 0.56 27.01 5.33 27.01 11.2 27.01 16.62 22.95 21.09 17.7 21.75Z"/></clipPath><path fillRule="evenodd" d="M 17.7 21.75C 18.07 21.81 18.3 21.84 18.3 21.84 18.3 21.84 16.43 21.84 16.43 21.84 16.41 21.84 16.39 21.84 16.37 21.84 16.35 21.84 16.33 21.84 16.31 21.84 16.31 21.84 0.15 21.84 0.15 21.84 0.15 21.84 6.59 15.4 6.59 15.4 6.04 14.11 5.73 12.69 5.73 11.2 5.73 5.33 10.49 0.56 16.37 0.56 22.24 0.56 27.01 5.33 27.01 11.2 27.01 16.62 22.95 21.09 17.7 21.75Z" fill="none" stroke="url(#linear_PSgrad_0)" stroke-width="8.00px" clip-path="url(#clip0)"/></svg>