<?xml version="1.0" encoding="utf-8"?>
<svg xmlns="http://www.w3.org/2000/svg"
	xmlns:xlink="http://www.w3.org/1999/xlink"
	width="12px" height="18px" viewBox="0 0 12 18">
<filter filterUnits="objectBoundingBox" x="0.00" y="0.00" width="100.00" height="100.00" id="filter0">
<feImage x="0" y="0" width="12" height="18" preserveApectRatio="none" xlink:href="#symbol0"/>
<feComposite in="grImage1" in2="SourceAlpha" operator="in" result="grOverlay1"/>
<feBlend in="grOverlay1" in2="SourceGraphic" mode="normal" result="gradientOverlay1"/>
</filter>
<linearGradient id="linear_PSgrad_0" x1="50%" y1="100%" x2="50%" y2="0%">
    <stop offset="0%" stop-color="rgb(147,33,145)" stop-opacity="1" />
    <stop offset="100%" stop-color="rgb(255,55,109)" stop-opacity="1" />
</linearGradient>

<defs>
<rect x="0" y="0" width="12" height="18" id="symbol0" fill="url(#linear_PSgrad_0)"/></defs>
<path fillRule="evenodd" d="M 11.54 8.56C 11.37 9.08 10.84 9.58 10.52 9.48 10.52 9.48 7.08 8.31 7.08 8.31 7.08 8.31 7.08 10.93 7.08 10.93 7.08 10.93 11.38 15.22 11.38 15.22 11.74 15.59 11.67 16.26 11.21 16.71 10.76 17.17 10.09 17.24 9.72 16.88 9.72 16.88 5.91 13.06 5.91 13.06 5.91 13.06 2.09 16.88 2.09 16.88 1.72 17.24 1.05 17.17 0.6 16.71 0.14 16.26 0.07 15.59 0.44 15.22 0.44 15.22 4.74 10.92 4.74 10.92 4.74 10.92 4.74 8.13 4.74 8.13 4.74 8.13 1.18 9.34 1.18 9.34 0.86 9.45 0.33 8.95 0.16 8.43-0.02 7.91 0.1 7.4 0.41 7.29 0.41 7.29 5.32 5.63 5.32 5.63 5.39 5.6 5.47 5.61 5.54 5.63 5.58 5.62 5.62 5.62 5.65 5.61 4.5 5.46 3.62 4.48 3.62 3.29 3.62 2 4.66 0.95 5.96 0.95 7.25 0.95 8.3 2 8.3 3.29 8.3 4.5 7.38 5.49 6.2 5.61 6.38 5.66 6.54 5.75 6.68 5.86 6.68 5.86 11.29 7.43 11.29 7.43 11.6 7.53 11.72 8.04 11.54 8.56Z" fill="rgb(21,201,137)" filter="url(#filter0)"/></svg>